<svg width="567" height="951" viewBox="0 0 567 951" fill="none" xmlns="http://www.w3.org/2000/svg">
<g filter="url(#filter0_dd_4009_212)">
<g clip-path="url(#clip0_4009_212)">
<path d="M20 10.6H440V910.6H20V10.6Z" fill="#E0F2FE"/>
<path d="M58.4 635.8C58.4 622.545 69.1452 611.8 82.4 611.8H377.6C390.855 611.8 401.6 622.545 401.6 635.8V823C401.6 836.255 390.855 847 377.6 847H82.4C69.1452 847 58.4 836.255 58.4 823V635.8Z" fill="white"/>
<mask id="mask0_4009_212" style="mask-type:alpha" maskUnits="userSpaceOnUse" x="58" y="611" width="344" height="236">
<path d="M58.4 635.8C58.4 622.545 69.1452 611.8 82.4 611.8H377.6C390.855 611.8 401.6 622.545 401.6 635.8V823C401.6 836.255 390.855 847 377.6 847H82.4C69.1452 847 58.4 836.255 58.4 823V635.8Z" fill="white"/>
</mask>
<g mask="url(#mask0_4009_212)">
<path d="M316.4 690.4C316.4 703.324 305.924 713.8 293 713.8C280.077 713.8 269.6 703.324 269.6 690.4C269.6 677.476 280.077 667 293 667C305.924 667 316.4 677.476 316.4 690.4Z" fill="#FBBF24"/>
<path d="M237.2 656.8C237.2 710.813 193.413 754.6 139.4 754.6C85.3865 754.6 41.6 710.813 41.6 656.8C41.6 602.787 85.3865 559 139.4 559C193.413 559 237.2 602.787 237.2 656.8Z" fill="white"/>
<path fill-rule="evenodd" clip-rule="evenodd" d="M139.4 742.6C186.786 742.6 225.2 704.186 225.2 656.8C225.2 609.414 186.786 571 139.4 571C92.014 571 53.6 609.414 53.6 656.8C53.6 704.186 92.014 742.6 139.4 742.6ZM139.4 754.6C193.413 754.6 237.2 710.813 237.2 656.8C237.2 602.787 193.413 559 139.4 559C85.3865 559 41.6 602.787 41.6 656.8C41.6 710.813 85.3865 754.6 139.4 754.6Z" fill="#E0F2FE"/>
</g>
<path d="M401.6 877L190.4 877L401.6 675.4L401.6 877Z" fill="#BAE6FD"/>
<path d="M58.4 566.2C58.4 562.224 61.6236 559 65.6 559H238.4C242.376 559 245.6 562.224 245.6 566.2C245.6 570.177 242.376 573.4 238.4 573.4H65.6C61.6236 573.4 58.4 570.177 58.4 566.2Z" fill="white"/>
<mask id="path-11-inside-1_4009_212" fill="white">
<path d="M20 795.4H440V910.6H20V795.4Z"/>
</mask>
<path d="M20 795.4H440V910.6H20V795.4Z" fill="#E0F2FE"/>
<path d="M20 798.4H440V792.4H20V798.4Z" fill="white" mask="url(#path-11-inside-1_4009_212)"/>
<path fill-rule="evenodd" clip-rule="evenodd" d="M78.2718 829.602C79.124 829.636 79.8353 830.263 79.9755 831.104L85.8628 866.428L90.8693 848.906C91.0861 848.147 91.7719 847.618 92.5609 847.6C93.3499 847.583 94.0581 848.082 94.3076 848.831L97.4974 858.4H103.4C104.394 858.4 105.2 859.206 105.2 860.2C105.2 861.194 104.394 862 103.4 862H96.2C95.4252 862 94.7374 861.504 94.4924 860.769L92.7323 855.489L87.1307 875.095C86.8995 875.904 86.1385 876.445 85.2982 876.397C84.458 876.35 83.7628 875.726 83.6245 874.896L77.8473 840.233L72.7463 860.637C72.5459 861.438 71.826 862 71 862H63.8C62.8059 862 62 861.194 62 860.2C62 859.206 62.8059 858.4 63.8 858.4H69.5946L76.4537 830.964C76.6606 830.136 77.4197 829.568 78.2718 829.602Z" fill="white"/>
<path fill-rule="evenodd" clip-rule="evenodd" d="M107 858.4C106.006 858.4 105.2 859.206 105.2 860.2C105.2 861.194 106.006 862 107 862C107.994 862 108.8 861.194 108.8 860.2C108.8 859.206 107.994 858.4 107 858.4ZM101.6 860.2C101.6 857.218 104.018 854.8 107 854.8C109.982 854.8 112.4 857.218 112.4 860.2C112.4 863.183 109.982 865.6 107 865.6C104.018 865.6 101.6 863.183 101.6 860.2Z" fill="white"/>
<path fill-rule="evenodd" clip-rule="evenodd" d="M215.254 832.882C218.456 830.742 222.221 829.6 226.073 829.6V831.4L226.073 829.6C231.237 829.6 236.19 831.652 239.841 835.304C243.493 838.956 245.545 843.908 245.545 849.073V849.073C245.545 852.924 244.403 856.689 242.263 859.891C240.124 863.093 237.083 865.589 233.524 867.063C229.966 868.537 226.051 868.922 222.274 868.171C218.496 867.42 215.027 865.565 212.303 862.842C209.58 860.119 207.726 856.649 206.974 852.872C206.223 849.094 206.608 845.179 208.082 841.621C209.556 838.063 212.052 835.022 215.254 832.882ZM226.072 833.2C222.933 833.2 219.864 834.131 217.254 835.875C214.644 837.619 212.61 840.098 211.408 842.998C210.207 845.899 209.893 849.09 210.505 852.169C211.117 855.248 212.629 858.076 214.849 860.296C217.069 862.516 219.897 864.028 222.976 864.64C226.055 865.253 229.246 864.938 232.147 863.737C235.047 862.536 237.526 860.501 239.27 857.891C241.014 855.281 241.945 852.212 241.945 849.073" fill="white"/>
<path fill-rule="evenodd" clip-rule="evenodd" d="M237.985 860.985C238.688 860.282 239.827 860.282 240.53 860.985L252.873 873.327C253.576 874.03 253.576 875.17 252.873 875.873C252.17 876.576 251.03 876.576 250.327 875.873L237.985 863.531C237.282 862.828 237.282 861.688 237.985 860.985Z" fill="white"/>
<path fill-rule="evenodd" clip-rule="evenodd" d="M351.2 842.2C351.2 841.206 352.006 840.4 353 840.4H392.6C393.594 840.4 394.4 841.206 394.4 842.2C394.4 843.194 393.594 844 392.6 844H353C352.006 844 351.2 843.194 351.2 842.2Z" fill="white"/>
<path fill-rule="evenodd" clip-rule="evenodd" d="M351.2 853C351.2 852.006 352.006 851.2 353 851.2H392.6C393.594 851.2 394.4 852.006 394.4 853C394.4 853.994 393.594 854.8 392.6 854.8H353C352.006 854.8 351.2 853.994 351.2 853Z" fill="white"/>
<path fill-rule="evenodd" clip-rule="evenodd" d="M351.2 863.8C351.2 862.806 352.006 862 353 862H392.6C393.594 862 394.4 862.806 394.4 863.8C394.4 864.794 393.594 865.6 392.6 865.6H353C352.006 865.6 351.2 864.794 351.2 863.8Z" fill="white"/>
<path fill-rule="evenodd" clip-rule="evenodd" d="M87.7593 113.691C88.8137 114.745 88.8137 116.455 87.7593 117.509L73.4685 131.8L87.7593 146.091C88.8137 147.145 88.8137 148.855 87.7593 149.909C86.7049 150.964 84.9953 150.964 83.9409 149.909L67.7409 133.709C66.6865 132.655 66.6865 130.945 67.7409 129.891L83.9409 113.691C84.9953 112.636 86.7049 112.636 87.7593 113.691Z" fill="white"/>
<path fill-rule="evenodd" clip-rule="evenodd" d="M69.2001 131.8C69.2001 130.309 70.4089 129.1 71.9001 129.1H104.75C106.241 129.1 107.45 130.309 107.45 131.8C107.45 133.291 106.241 134.5 104.75 134.5H71.9001C70.4089 134.5 69.2001 133.291 69.2001 131.8Z" fill="white"/>
<path d="M150.8 131.8C150.8 126.498 155.098 122.2 160.4 122.2H299.6C304.902 122.2 309.2 126.498 309.2 131.8C309.2 137.102 304.902 141.4 299.6 141.4H160.4C155.098 141.4 150.8 137.102 150.8 131.8Z" fill="#BAE6FD"/>
<path d="M58.4 225.4C58.4 221.424 61.6236 218.2 65.6 218.2H166.4C170.376 218.2 173.6 221.424 173.6 225.4C173.6 229.376 170.376 232.6 166.4 232.6H65.6C61.6236 232.6 58.4 229.376 58.4 225.4Z" fill="white"/>
<path d="M58.4 259C58.4 255.024 61.6236 251.8 65.6 251.8H220.4C224.376 251.8 227.6 255.024 227.6 259C227.6 262.977 224.376 266.2 220.4 266.2H65.6C61.6236 266.2 58.4 262.977 58.4 259Z" fill="white"/>
<path d="M192.8 225.4C192.8 221.424 196.024 218.2 200 218.2H320C323.976 218.2 327.2 221.424 327.2 225.4C327.2 229.376 323.976 232.6 320 232.6H200C196.024 232.6 192.8 229.376 192.8 225.4Z" fill="white"/>
<g filter="url(#filter1_dd_4009_212)">
<g clip-path="url(#clip1_4009_212)">
<rect x="58.4" y="304.6" width="144" height="196.8" rx="20" fill="white"/>
<path d="M154.323 501.57C154.323 551.37 114.189 591.74 64.6806 591.74C15.1728 591.74 -24.9613 551.37 -24.9613 501.57C-24.9613 451.771 15.1728 411.4 64.6806 411.4C114.189 411.4 154.323 451.771 154.323 501.57Z" fill="#FBBF24"/>
<path d="M178.303 363.756C178.303 381.836 163.732 396.493 145.758 396.493C127.784 396.493 113.213 381.836 113.213 363.756C113.213 345.676 127.784 331.019 145.758 331.019C163.732 331.019 178.303 345.676 178.303 363.756Z" fill="white"/>
<path fill-rule="evenodd" clip-rule="evenodd" d="M145.758 392.893C161.724 392.893 174.703 379.868 174.703 363.756C174.703 347.644 161.724 334.619 145.758 334.619C129.792 334.619 116.813 347.644 116.813 363.756C116.813 379.868 129.792 392.893 145.758 392.893ZM145.758 396.493C163.732 396.493 178.303 381.836 178.303 363.756C178.303 345.676 163.732 331.019 145.758 331.019C127.784 331.019 113.213 345.676 113.213 363.756C113.213 381.836 127.784 396.493 145.758 396.493Z" fill="#BAE6FD"/>
</g>
<rect x="59.4" y="305.6" width="142" height="194.8" rx="19" stroke="#38BDF8" stroke-width="2"/>
</g>
<g filter="url(#filter2_dd_4009_212)">
<rect x="221.6" y="304.6" width="144" height="196.8" rx="20" fill="white"/>
<rect x="222.6" y="305.6" width="142" height="194.8" rx="19" stroke="#38BDF8" stroke-width="2"/>
<path d="M345.858 357.439C345.858 366.32 338.579 373.52 329.6 373.52C320.621 373.52 313.342 366.32 313.342 357.439C313.342 348.557 320.621 341.357 329.6 341.357C338.579 341.357 345.858 348.557 345.858 357.439Z" fill="#FBBF24"/>
<path d="M320.31 445.311C320.31 463.391 305.492 478.048 287.213 478.048C268.934 478.048 254.116 463.391 254.116 445.311C254.116 427.231 268.934 412.574 287.213 412.574C305.492 412.574 320.31 427.231 320.31 445.311Z" fill="#BAE6FD"/>
<path fill-rule="evenodd" clip-rule="evenodd" d="M287.213 474.448C303.541 474.448 316.71 461.366 316.71 445.311C316.71 429.256 303.541 416.174 287.213 416.174C270.885 416.174 257.716 429.256 257.716 445.311C257.716 461.366 270.885 474.448 287.213 474.448ZM287.213 478.048C305.492 478.048 320.31 463.391 320.31 445.311C320.31 427.231 305.492 412.574 287.213 412.574C268.934 412.574 254.116 427.231 254.116 445.311C254.116 463.391 268.934 478.048 287.213 478.048Z" fill="#BAE6FD"/>
</g>
<g filter="url(#filter3_dd_4009_212)">
<rect x="384.8" y="304.6" width="144" height="196.8" rx="20" fill="white"/>
<rect x="385.8" y="305.6" width="142" height="194.8" rx="19" stroke="#38BDF8" stroke-width="2"/>
<path d="M440 355L451.286 387.467L485.651 388.167L458.26 408.933L468.214 441.833L440 422.2L411.786 441.833L421.74 408.933L394.349 388.167L428.715 387.467L440 355Z" fill="white"/>
<path fill-rule="evenodd" clip-rule="evenodd" d="M451.286 387.467L440 355L428.715 387.467L394.349 388.167L421.74 408.933L411.786 441.833L440 422.2L468.214 441.833L458.26 408.933L485.651 388.167L451.286 387.467ZM475.223 391.555L448.708 391.015L440 365.965L431.293 391.015L404.777 391.555L425.911 407.578L418.231 432.962L440 417.814L461.769 432.962L454.089 407.578L475.223 391.555Z" fill="#FBBF24"/>
</g>
</g>
<rect x="22.5" y="13.1" width="415" height="895" rx="17.5" stroke="white" stroke-width="5"/>
</g>
<g filter="url(#filter4_dd_4009_212)">
<rect x="385" y="304.6" width="144" height="196.8" rx="20" fill="white"/>
<rect x="386" y="305.6" width="142" height="194.8" rx="19" stroke="#38BDF8" stroke-width="2"/>
<path d="M520.89 390.176C520.89 408.256 506.319 422.913 488.345 422.913C470.371 422.913 455.8 408.256 455.8 390.176C455.8 372.096 470.371 357.439 488.345 357.439C506.319 357.439 520.89 372.096 520.89 390.176Z" fill="white"/>
<path fill-rule="evenodd" clip-rule="evenodd" d="M488.345 419.313C504.311 419.313 517.29 406.287 517.29 390.176C517.29 374.064 504.311 361.039 488.345 361.039C472.379 361.039 459.4 374.064 459.4 390.176C459.4 406.287 472.379 419.313 488.345 419.313ZM488.345 422.913C506.319 422.913 520.89 408.256 520.89 390.176C520.89 372.096 506.319 357.439 488.345 357.439C470.371 357.439 455.8 372.096 455.8 390.176C455.8 408.256 470.371 422.913 488.345 422.913Z" fill="#BAE6FD"/>
<path d="M440.2 355L451.486 387.467L485.851 388.167L458.46 408.933L468.414 441.833L440.2 422.2L411.986 441.833L421.94 408.933L394.549 388.167L428.915 387.467L440.2 355Z" fill="white"/>
<path fill-rule="evenodd" clip-rule="evenodd" d="M451.486 387.467L440.2 355L428.915 387.467L394.549 388.167L421.94 408.933L411.986 441.833L440.2 422.2L468.414 441.833L458.46 408.933L485.851 388.167L451.486 387.467ZM475.423 391.555L448.908 391.015L440.2 365.965L431.493 391.015L404.977 391.555L426.111 407.578L418.431 432.962L440.2 417.814L461.969 432.962L454.289 407.578L475.423 391.555Z" fill="#FBBF24"/>
</g>
<defs>
<filter id="filter0_dd_4009_212" x="0" y="0.599976" width="460" height="950" filterUnits="userSpaceOnUse" color-interpolation-filters="sRGB">
<feFlood flood-opacity="0" result="BackgroundImageFix"/>
<feColorMatrix in="SourceAlpha" type="matrix" values="0 0 0 0 0 0 0 0 0 0 0 0 0 0 0 0 0 0 127 0" result="hardAlpha"/>
<feOffset/>
<feGaussianBlur stdDeviation="5"/>
<feColorMatrix type="matrix" values="0 0 0 0 0 0 0 0 0 0 0 0 0 0 0 0 0 0 0.07 0"/>
<feBlend mode="normal" in2="BackgroundImageFix" result="effect1_dropShadow_4009_212"/>
<feColorMatrix in="SourceAlpha" type="matrix" values="0 0 0 0 0 0 0 0 0 0 0 0 0 0 0 0 0 0 127 0" result="hardAlpha"/>
<feMorphology radius="5" operator="erode" in="SourceAlpha" result="effect2_dropShadow_4009_212"/>
<feOffset dy="20"/>
<feGaussianBlur stdDeviation="12.5"/>
<feColorMatrix type="matrix" values="0 0 0 0 0 0 0 0 0 0 0 0 0 0 0 0 0 0 0.1 0"/>
<feBlend mode="normal" in2="effect1_dropShadow_4009_212" result="effect2_dropShadow_4009_212"/>
<feBlend mode="normal" in="SourceGraphic" in2="effect2_dropShadow_4009_212" result="shape"/>
</filter>
<filter id="filter1_dd_4009_212" x="20.4" y="289.6" width="220" height="274.8" filterUnits="userSpaceOnUse" color-interpolation-filters="sRGB">
<feFlood flood-opacity="0" result="BackgroundImageFix"/>
<feColorMatrix in="SourceAlpha" type="matrix" values="0 0 0 0 0 0 0 0 0 0 0 0 0 0 0 0 0 0 127 0" result="hardAlpha"/>
<feOffset/>
<feGaussianBlur stdDeviation="7.5"/>
<feComposite in2="hardAlpha" operator="out"/>
<feColorMatrix type="matrix" values="0 0 0 0 0 0 0 0 0 0 0 0 0 0 0 0 0 0 0.07 0"/>
<feBlend mode="normal" in2="BackgroundImageFix" result="effect1_dropShadow_4009_212"/>
<feColorMatrix in="SourceAlpha" type="matrix" values="0 0 0 0 0 0 0 0 0 0 0 0 0 0 0 0 0 0 127 0" result="hardAlpha"/>
<feMorphology radius="12" operator="erode" in="SourceAlpha" result="effect2_dropShadow_4009_212"/>
<feOffset dy="25"/>
<feGaussianBlur stdDeviation="25"/>
<feColorMatrix type="matrix" values="0 0 0 0 0 0 0 0 0 0 0 0 0 0 0 0 0 0 0.25 0"/>
<feBlend mode="normal" in2="effect1_dropShadow_4009_212" result="effect2_dropShadow_4009_212"/>
<feBlend mode="normal" in="SourceGraphic" in2="effect2_dropShadow_4009_212" result="shape"/>
</filter>
<filter id="filter2_dd_4009_212" x="183.6" y="289.6" width="220" height="274.8" filterUnits="userSpaceOnUse" color-interpolation-filters="sRGB">
<feFlood flood-opacity="0" result="BackgroundImageFix"/>
<feColorMatrix in="SourceAlpha" type="matrix" values="0 0 0 0 0 0 0 0 0 0 0 0 0 0 0 0 0 0 127 0" result="hardAlpha"/>
<feOffset/>
<feGaussianBlur stdDeviation="7.5"/>
<feComposite in2="hardAlpha" operator="out"/>
<feColorMatrix type="matrix" values="0 0 0 0 0 0 0 0 0 0 0 0 0 0 0 0 0 0 0.07 0"/>
<feBlend mode="normal" in2="BackgroundImageFix" result="effect1_dropShadow_4009_212"/>
<feColorMatrix in="SourceAlpha" type="matrix" values="0 0 0 0 0 0 0 0 0 0 0 0 0 0 0 0 0 0 127 0" result="hardAlpha"/>
<feMorphology radius="12" operator="erode" in="SourceAlpha" result="effect2_dropShadow_4009_212"/>
<feOffset dy="25"/>
<feGaussianBlur stdDeviation="25"/>
<feColorMatrix type="matrix" values="0 0 0 0 0 0 0 0 0 0 0 0 0 0 0 0 0 0 0.25 0"/>
<feBlend mode="normal" in2="effect1_dropShadow_4009_212" result="effect2_dropShadow_4009_212"/>
<feBlend mode="normal" in="SourceGraphic" in2="effect2_dropShadow_4009_212" result="shape"/>
</filter>
<filter id="filter3_dd_4009_212" x="346.8" y="289.6" width="220" height="274.8" filterUnits="userSpaceOnUse" color-interpolation-filters="sRGB">
<feFlood flood-opacity="0" result="BackgroundImageFix"/>
<feColorMatrix in="SourceAlpha" type="matrix" values="0 0 0 0 0 0 0 0 0 0 0 0 0 0 0 0 0 0 127 0" result="hardAlpha"/>
<feOffset/>
<feGaussianBlur stdDeviation="7.5"/>
<feComposite in2="hardAlpha" operator="out"/>
<feColorMatrix type="matrix" values="0 0 0 0 0 0 0 0 0 0 0 0 0 0 0 0 0 0 0.07 0"/>
<feBlend mode="normal" in2="BackgroundImageFix" result="effect1_dropShadow_4009_212"/>
<feColorMatrix in="SourceAlpha" type="matrix" values="0 0 0 0 0 0 0 0 0 0 0 0 0 0 0 0 0 0 127 0" result="hardAlpha"/>
<feMorphology radius="12" operator="erode" in="SourceAlpha" result="effect2_dropShadow_4009_212"/>
<feOffset dy="25"/>
<feGaussianBlur stdDeviation="25"/>
<feColorMatrix type="matrix" values="0 0 0 0 0 0 0 0 0 0 0 0 0 0 0 0 0 0 0.25 0"/>
<feBlend mode="normal" in2="effect1_dropShadow_4009_212" result="effect2_dropShadow_4009_212"/>
<feBlend mode="normal" in="SourceGraphic" in2="effect2_dropShadow_4009_212" result="shape"/>
</filter>
<filter id="filter4_dd_4009_212" x="347" y="289.6" width="220" height="274.8" filterUnits="userSpaceOnUse" color-interpolation-filters="sRGB">
<feFlood flood-opacity="0" result="BackgroundImageFix"/>
<feColorMatrix in="SourceAlpha" type="matrix" values="0 0 0 0 0 0 0 0 0 0 0 0 0 0 0 0 0 0 127 0" result="hardAlpha"/>
<feOffset/>
<feGaussianBlur stdDeviation="7.5"/>
<feComposite in2="hardAlpha" operator="out"/>
<feColorMatrix type="matrix" values="0 0 0 0 0 0 0 0 0 0 0 0 0 0 0 0 0 0 0.07 0"/>
<feBlend mode="normal" in2="BackgroundImageFix" result="effect1_dropShadow_4009_212"/>
<feColorMatrix in="SourceAlpha" type="matrix" values="0 0 0 0 0 0 0 0 0 0 0 0 0 0 0 0 0 0 127 0" result="hardAlpha"/>
<feMorphology radius="12" operator="erode" in="SourceAlpha" result="effect2_dropShadow_4009_212"/>
<feOffset dy="25"/>
<feGaussianBlur stdDeviation="25"/>
<feColorMatrix type="matrix" values="0 0 0 0 0 0 0 0 0 0 0 0 0 0 0 0 0 0 0.25 0"/>
<feBlend mode="normal" in2="effect1_dropShadow_4009_212" result="effect2_dropShadow_4009_212"/>
<feBlend mode="normal" in="SourceGraphic" in2="effect2_dropShadow_4009_212" result="shape"/>
</filter>
<clipPath id="clip0_4009_212">
<rect x="20" y="10.6" width="420" height="900" rx="20" fill="white"/>
</clipPath>
<clipPath id="clip1_4009_212">
<rect x="58.4" y="304.6" width="144" height="196.8" rx="20" fill="white"/>
</clipPath>
</defs>
</svg>
