<svg width="481" height="950" viewBox="0 0 481 950" fill="none" xmlns="http://www.w3.org/2000/svg">
<g filter="url(#filter0_dd_4023_141)">
<g clip-path="url(#clip0_4023_141)">
<path d="M20 10.0002H440V910H20V10.0002Z" fill="#E0F2FE"/>
<path fill-rule="evenodd" clip-rule="evenodd" d="M349.4 355.073C349.47 348.228 354.908 342.4 361.897 342.4C366.186 342.4 369.342 344.524 371.355 346.523C371.916 347.079 372.397 347.635 372.8 348.147C373.203 347.635 373.684 347.079 374.245 346.523C376.258 344.524 379.414 342.4 383.704 342.4C390.692 342.4 396.13 348.228 396.2 355.073V355.073C396.333 368.423 385.607 377.658 374.825 384.977C374.228 385.383 373.522 385.6 372.8 385.6C372.078 385.6 371.372 385.383 370.775 384.977C359.992 377.658 349.266 368.423 349.4 355.073L349.4 355.073ZM374.408 352.21C374.408 352.209 374.409 352.207 374.41 352.205C374.413 352.199 374.42 352.186 374.43 352.167C374.45 352.129 374.484 352.067 374.531 351.985C374.625 351.82 374.773 351.575 374.973 351.276C375.375 350.675 375.979 349.874 376.781 349.077C378.393 347.477 380.69 346 383.704 346C388.586 346 392.549 350.103 392.6 355.109C392.712 366.358 383.678 374.617 372.802 381.999L372.8 382L372.798 381.999C361.921 374.617 352.887 366.359 353 355.11" fill="white"/>
<path d="M58.4 364C58.4 358.698 62.6981 354.4 68 354.4H132.8C138.102 354.4 142.4 358.698 142.4 364C142.4 369.302 138.102 373.6 132.8 373.6H68C62.6981 373.6 58.4 369.302 58.4 364Z" fill="#BAE6FD"/>
<path d="M161.6 364C161.6 358.698 165.898 354.4 171.2 354.4H279.2C284.502 354.4 288.8 358.698 288.8 364C288.8 369.302 284.502 373.6 279.2 373.6H171.2C165.898 373.6 161.6 369.302 161.6 364Z" fill="#BAE6FD"/>
<path d="M58.4 409.6C58.4 405.624 61.6236 402.4 65.6 402.4H166.4C170.376 402.4 173.6 405.624 173.6 409.6C173.6 413.577 170.376 416.8 166.4 416.8H65.6C61.6236 416.8 58.4 413.577 58.4 409.6Z" fill="white"/>
<path d="M58.4 443.2C58.4 439.224 61.6236 436 65.6 436H220.4C224.376 436 227.6 439.224 227.6 443.2C227.6 447.177 224.376 450.4 220.4 450.4H65.6C61.6236 450.4 58.4 447.177 58.4 443.2Z" fill="white"/>
<path d="M192.8 409.6C192.8 405.624 196.024 402.4 200 402.4H320C323.976 402.4 327.2 405.624 327.2 409.6C327.2 413.577 323.976 416.8 320 416.8H200C196.024 416.8 192.8 413.577 192.8 409.6Z" fill="white"/>
<path d="M58.4 85.6003C58.4 72.3455 69.1452 61.6003 82.4 61.6003H377.6C390.855 61.6003 401.6 72.3455 401.6 85.6003V272.8C401.6 286.055 390.855 296.8 377.6 296.8H82.4C69.1452 296.8 58.4 286.055 58.4 272.8V85.6003Z" fill="white"/>
<mask id="mask0_4023_141" style="mask-type:alpha" maskUnits="userSpaceOnUse" x="58" y="61" width="344" height="236">
<path d="M58.4 85.6003C58.4 72.3455 69.1452 61.6003 82.4 61.6003H377.6C390.855 61.6003 401.6 72.3455 401.6 85.6003V272.8C401.6 286.055 390.855 296.8 377.6 296.8H82.4C69.1452 296.8 58.4 286.055 58.4 272.8V85.6003Z" fill="white"/>
</mask>
<g mask="url(#mask0_4023_141)">
<path d="M58.4 61.6003H269.6L58.4 263.2V61.6003Z" fill="#BAE6FD"/>
<path d="M456.8 272.8C456.8 313.89 423.49 347.2 382.4 347.2C341.31 347.2 308 313.89 308 272.8C308 231.71 341.31 198.4 382.4 198.4C423.49 198.4 456.8 231.71 456.8 272.8Z" fill="#FBBF24"/>
<path d="M382.4 209.2C382.4 250.953 348.553 284.8 306.8 284.8C265.047 284.8 231.2 250.953 231.2 209.2C231.2 167.448 265.047 133.6 306.8 133.6C348.553 133.6 382.4 167.448 382.4 209.2Z" fill="white"/>
<path fill-rule="evenodd" clip-rule="evenodd" d="M306.8 272.8C341.925 272.8 370.4 244.325 370.4 209.2C370.4 174.075 341.925 145.6 306.8 145.6C271.675 145.6 243.2 174.075 243.2 209.2C243.2 244.325 271.675 272.8 306.8 272.8ZM306.8 284.8C348.553 284.8 382.4 250.953 382.4 209.2C382.4 167.448 348.553 133.6 306.8 133.6C265.047 133.6 231.2 167.448 231.2 209.2C231.2 250.953 265.047 284.8 306.8 284.8Z" fill="#E0F2FE"/>
</g>
<mask id="path-16-inside-1_4023_141" fill="white">
<path d="M20 794.8H440V910H20V794.8Z"/>
</mask>
<path d="M20 797.8H440V791.8H20V797.8Z" fill="white" mask="url(#path-16-inside-1_4023_141)"/>
<path fill-rule="evenodd" clip-rule="evenodd" d="M78.2718 829.002C79.124 829.036 79.8353 829.663 79.9755 830.504L85.8628 865.828L90.8693 848.306C91.0861 847.547 91.7719 847.018 92.5609 847.001C93.3499 846.984 94.0581 847.482 94.3076 848.231L97.4974 857.8H103.4C104.394 857.8 105.2 858.606 105.2 859.6C105.2 860.594 104.394 861.4 103.4 861.4H96.2C95.4252 861.4 94.7374 860.904 94.4924 860.169L92.7323 854.889L87.1307 874.495C86.8995 875.304 86.1385 875.845 85.2982 875.797C84.458 875.75 83.7628 875.126 83.6245 874.296L77.8473 839.633L72.7463 860.037C72.5459 860.838 71.826 861.4 71 861.4H63.8C62.8059 861.4 62 860.594 62 859.6C62 858.606 62.8059 857.8 63.8 857.8H69.5946L76.4537 830.364C76.6606 829.536 77.4197 828.968 78.2718 829.002Z" fill="white"/>
<path fill-rule="evenodd" clip-rule="evenodd" d="M107 857.8C106.006 857.8 105.2 858.606 105.2 859.6C105.2 860.595 106.006 861.4 107 861.4C107.994 861.4 108.8 860.595 108.8 859.6C108.8 858.606 107.994 857.8 107 857.8ZM101.6 859.6C101.6 856.618 104.018 854.2 107 854.2C109.982 854.2 112.4 856.618 112.4 859.6C112.4 862.583 109.982 865 107 865C104.018 865 101.6 862.583 101.6 859.6Z" fill="white"/>
<path fill-rule="evenodd" clip-rule="evenodd" d="M215.254 832.282C218.456 830.142 222.221 829 226.073 829V830.8L226.073 829C231.237 829.001 236.19 831.052 239.841 834.704C243.493 838.356 245.545 843.308 245.545 848.473V848.473C245.545 852.324 244.403 856.089 242.263 859.291C240.124 862.494 237.083 864.989 233.524 866.463C229.966 867.937 226.051 868.323 222.274 867.571C218.496 866.82 215.027 864.965 212.303 862.242C209.58 859.519 207.726 856.049 206.974 852.272C206.223 848.494 206.608 844.579 208.082 841.021C209.556 837.463 212.052 834.422 215.254 832.282ZM226.072 832.6C222.933 832.6 219.864 833.531 217.254 835.275C214.644 837.019 212.61 839.498 211.408 842.399C210.207 845.299 209.893 848.49 210.505 851.569C211.117 854.648 212.629 857.477 214.849 859.697C217.069 861.916 219.897 863.428 222.976 864.041C226.055 864.653 229.246 864.339 232.147 863.137C235.047 861.936 237.526 859.901 239.27 857.291C241.014 854.681 241.945 851.612 241.945 848.473" fill="white"/>
<path fill-rule="evenodd" clip-rule="evenodd" d="M237.985 860.385C238.688 859.682 239.827 859.682 240.53 860.385L252.873 872.728C253.576 873.43 253.576 874.57 252.873 875.273C252.17 875.976 251.03 875.976 250.327 875.273L237.985 862.931C237.282 862.228 237.282 861.088 237.985 860.385Z" fill="white"/>
<path fill-rule="evenodd" clip-rule="evenodd" d="M351.2 841.6C351.2 840.606 352.006 839.8 353 839.8H392.6C393.594 839.8 394.4 840.606 394.4 841.6C394.4 842.594 393.594 843.4 392.6 843.4H353C352.006 843.4 351.2 842.594 351.2 841.6Z" fill="white"/>
<path fill-rule="evenodd" clip-rule="evenodd" d="M351.2 852.4C351.2 851.406 352.006 850.6 353 850.6H392.6C393.594 850.6 394.4 851.406 394.4 852.4C394.4 853.394 393.594 854.2 392.6 854.2H353C352.006 854.2 351.2 853.394 351.2 852.4Z" fill="white"/>
<path fill-rule="evenodd" clip-rule="evenodd" d="M351.2 863.2C351.2 862.206 352.006 861.4 353 861.4H392.6C393.594 861.4 394.4 862.206 394.4 863.2C394.4 864.195 393.594 865 392.6 865H353C352.006 865 351.2 864.195 351.2 863.2Z" fill="white"/>
</g>
<rect x="22.5" y="12.5002" width="415" height="895" rx="17.5" stroke="white" stroke-width="5"/>
</g>
<path d="M326.8 649.6C326.8 681.412 301.012 707.2 269.2 707.2C237.388 707.2 211.6 681.412 211.6 649.6C211.6 617.788 237.388 592 269.2 592C301.012 592 326.8 617.788 326.8 649.6Z" fill="white"/>
<path fill-rule="evenodd" clip-rule="evenodd" d="M269.2 703.6C299.023 703.6 323.2 679.423 323.2 649.6C323.2 619.777 299.023 595.6 269.2 595.6C239.377 595.6 215.2 619.777 215.2 649.6C215.2 679.423 239.377 703.6 269.2 703.6ZM269.2 707.2C301.012 707.2 326.8 681.412 326.8 649.6C326.8 617.788 301.012 592 269.2 592C237.388 592 211.6 617.788 211.6 649.6C211.6 681.412 237.388 707.2 269.2 707.2Z" fill="#BAE6FD"/>
<path d="M480.4 649.6C480.4 681.412 454.612 707.2 422.8 707.2C390.988 707.2 365.2 681.412 365.2 649.6C365.2 617.788 390.988 592 422.8 592C454.612 592 480.4 617.788 480.4 649.6Z" fill="#BAE6FD"/>
<path fill-rule="evenodd" clip-rule="evenodd" d="M422.8 703.6C452.623 703.6 476.8 679.423 476.8 649.6C476.8 619.777 452.623 595.6 422.8 595.6C392.977 595.6 368.8 619.777 368.8 649.6C368.8 679.423 392.977 703.6 422.8 703.6ZM422.8 707.2C454.612 707.2 480.4 681.412 480.4 649.6C480.4 617.788 454.612 592 422.8 592C390.988 592 365.2 617.788 365.2 649.6C365.2 681.412 390.988 707.2 422.8 707.2Z" fill="white"/>
<path d="M173.2 649.6C173.2 681.412 147.412 707.2 115.6 707.2C83.7884 707.2 58 681.412 58 649.6C58 617.788 83.7884 592 115.6 592C147.412 592 173.2 617.788 173.2 649.6Z" fill="#FBBF24"/>
<path fill-rule="evenodd" clip-rule="evenodd" d="M115.6 703.6C145.423 703.6 169.6 679.423 169.6 649.6C169.6 619.777 145.423 595.6 115.6 595.6C85.7766 595.6 61.6 619.777 61.6 649.6C61.6 679.423 85.7766 703.6 115.6 703.6ZM115.6 707.2C147.412 707.2 173.2 681.412 173.2 649.6C173.2 617.788 147.412 592 115.6 592C83.7884 592 58 617.788 58 649.6C58 681.412 83.7884 707.2 115.6 707.2Z" fill="white"/>
<path d="M58 553.6C58 548.298 62.2981 544 67.6 544H151.6C156.902 544 161.2 548.298 161.2 553.6C161.2 558.902 156.902 563.2 151.6 563.2H67.6C62.2981 563.2 58 558.902 58 553.6Z" fill="#BAE6FD"/>
<path d="M180.4 553.6C180.4 548.298 184.698 544 190 544H228.4C233.702 544 238 548.298 238 553.6C238 558.902 233.702 563.2 228.4 563.2H190C184.698 563.2 180.4 558.902 180.4 553.6Z" fill="#BAE6FD"/>
<defs>
<filter id="filter0_dd_4023_141" x="0" y="0.000244141" width="460" height="950" filterUnits="userSpaceOnUse" color-interpolation-filters="sRGB">
<feFlood flood-opacity="0" result="BackgroundImageFix"/>
<feColorMatrix in="SourceAlpha" type="matrix" values="0 0 0 0 0 0 0 0 0 0 0 0 0 0 0 0 0 0 127 0" result="hardAlpha"/>
<feOffset/>
<feGaussianBlur stdDeviation="5"/>
<feColorMatrix type="matrix" values="0 0 0 0 0 0 0 0 0 0 0 0 0 0 0 0 0 0 0.07 0"/>
<feBlend mode="normal" in2="BackgroundImageFix" result="effect1_dropShadow_4023_141"/>
<feColorMatrix in="SourceAlpha" type="matrix" values="0 0 0 0 0 0 0 0 0 0 0 0 0 0 0 0 0 0 127 0" result="hardAlpha"/>
<feMorphology radius="5" operator="erode" in="SourceAlpha" result="effect2_dropShadow_4023_141"/>
<feOffset dy="20"/>
<feGaussianBlur stdDeviation="12.5"/>
<feColorMatrix type="matrix" values="0 0 0 0 0 0 0 0 0 0 0 0 0 0 0 0 0 0 0.1 0"/>
<feBlend mode="normal" in2="effect1_dropShadow_4023_141" result="effect2_dropShadow_4023_141"/>
<feBlend mode="normal" in="SourceGraphic" in2="effect2_dropShadow_4023_141" result="shape"/>
</filter>
<clipPath id="clip0_4023_141">
<rect x="20" y="10.0002" width="420" height="900" rx="20" fill="white"/>
</clipPath>
</defs>
</svg>
